# xmcd
#
# Track frame offsets: 
#        150
#        16114
#        25255
#        35995
#        46952
#        59105
#        70752
#        80199
#        93368
#        104138
#        112985
#        122087
#
# Disc length: 1816 seconds
#
# Revision: 1
# Processed by: cddbd v1.5.2PL0 Copyright (c) Steve Scherf et al.
# Submitted via: ExactAudioCopyFreeDBPlugin 1.0
#
DISCID=a907160c
DTITLE=Pierre Perret - Le tord-boyaux
DYEAR=2011
DGENRE=Variété française
TTITLE0=Le Tord-boyaux
TTITLE1=Mon père ce satyre
TTITLE2=Les auverploums
TTITLE3=L'idole des femmes
TTITLE4=Bri-bri
TTITLE5=Vous dont je suis fou
TTITLE6=La famille sauf moi
TTITLE7=Les filles ça me tuera
TTITLE8=Noël (avant terme)
TTITLE9=La tigresse
TTITLE10=Trop contente
TTITLE11=Marina
EXTD=Intégrale 1957 - 2011
EXTT0=
EXTT1=
EXTT2=
EXTT3=
EXTT4=
EXTT5=
EXTT6=
EXTT7=
EXTT8=
EXTT9=
EXTT10=
EXTT11=
PLAYORDER=
